<?xml version="1.0" encoding="UTF-8" standalone="no"?>
<!-- Generator: Gravit.io -->
<svg xmlns="http://www.w3.org/2000/svg" xmlns:xlink="http://www.w3.org/1999/xlink" style="isolation:isolate" viewBox="0 0 1919 864" width="1919pt" height="864pt"><defs><clipPath id="_clipPath_gIdcuykUdLIA7oEleebrZAp4AVMjifs9"><rect width="1919" height="864"/></clipPath></defs><g clip-path="url(#_clipPath_gIdcuykUdLIA7oEleebrZAp4AVMjifs9)"><rect x="0" y="0" width="1919" height="95" transform="matrix(1,0,0,1,0,0)" fill="rgb(206,202,191)"/><defs><filter id="ACSS4Gk5Gq7zn86wHxyfz0TBG24GMqzK" x="-200%" y="-200%" width="400%" height="400%" filterUnits="objectBoundingBox" color-interpolation-filters="sRGB"><feGaussianBlur xmlns="http://www.w3.org/2000/svg" in="SourceGraphic" stdDeviation="2.146804531419514"/><feOffset xmlns="http://www.w3.org/2000/svg" dx="0" dy="0" result="pf_100_offsetBlur"/><feFlood xmlns="http://www.w3.org/2000/svg" flood-color="#000000" flood-opacity="0.65"/><feComposite xmlns="http://www.w3.org/2000/svg" in2="pf_100_offsetBlur" operator="in" result="pf_100_dropShadow"/><feBlend xmlns="http://www.w3.org/2000/svg" in="SourceGraphic" in2="pf_100_dropShadow" mode="normal"/></filter></defs><g filter="url(#ACSS4Gk5Gq7zn86wHxyfz0TBG24GMqzK)"><g clip-path="url(#_clipPath_Bc3tUHVVffZNCzxhM2VFBIBINcocRSbs)"><text transform="matrix(1,0,0,1,1708,69.891)" style="font-family:'Permanent Marker';font-weight:400;font-size:63px;font-style:normal;fill:#ff0000;stroke:none;">Email</text></g><defs><clipPath id="_clipPath_Bc3tUHVVffZNCzxhM2VFBIBINcocRSbs"><rect x="0" y="0" width="211" height="95" transform="matrix(1,0,0,1,1708,0)"/></clipPath></defs></g><defs><filter id="a1APEUXCcKnSi62bEIpsLWyKOEkvF9VE" x="-200%" y="-200%" width="400%" height="400%" filterUnits="objectBoundingBox" color-interpolation-filters="sRGB"><feGaussianBlur xmlns="http://www.w3.org/2000/svg" in="SourceGraphic" stdDeviation="2.146804531419514"/><feOffset xmlns="http://www.w3.org/2000/svg" dx="0" dy="0" result="pf_100_offsetBlur"/><feFlood xmlns="http://www.w3.org/2000/svg" flood-color="#53514E" flood-opacity="1"/><feComposite xmlns="http://www.w3.org/2000/svg" in2="pf_100_offsetBlur" operator="in" result="pf_100_dropShadow"/><feBlend xmlns="http://www.w3.org/2000/svg" in="SourceGraphic" in2="pf_100_dropShadow" mode="normal"/></filter></defs><g filter="url(#a1APEUXCcKnSi62bEIpsLWyKOEkvF9VE)"><path d="M 1729.5 10 L 1866.5 10 C 1887.197 10 1904 26.803 1904 47.5 L 1904 47.5 C 1904 68.197 1887.197 85 1866.5 85 L 1729.5 85 C 1708.803 85 1692 68.197 1692 47.5 L 1692 47.5 C 1692 26.803 1708.803 10 1729.5 10 Z" style="fill:none;stroke:#000000;stroke-width:6;stroke-linecap:square;stroke-miterlimit:2;"/></g><mask id="_mask_OlcJUxg8cf1s56ujS1JvioTd3paqFhlx"><path d=" M 1.671 103.582 C -1.884 97.19 0.42 89.114 6.812 85.56 C 13.204 82.005 21.28 84.309 24.834 90.701 C 28.389 97.093 26.085 105.168 19.693 108.723 C 13.301 112.278 5.225 109.974 1.671 103.582 L 1.671 103.582 Z  M 61.496 85.477 L 48.123 92.913 L 34.75 100.35 L 34.996 85.05 L 35.242 69.75 L 48.369 77.613 L 61.496 85.477 L 61.496 85.477 Z  M 52.091 60.381 L 75.254 47.5 L 88.135 70.663 L 64.971 83.544 L 52.091 60.381 Z " fill-rule="evenodd" fill="white" stroke="none"/></mask><path d=" M 1.671 103.582 C -1.884 97.19 0.42 89.114 6.812 85.56 C 13.204 82.005 21.28 84.309 24.834 90.701 C 28.389 97.093 26.085 105.168 19.693 108.723 C 13.301 112.278 5.225 109.974 1.671 103.582 L 1.671 103.582 Z  M 61.496 85.477 L 48.123 92.913 L 34.75 100.35 L 34.996 85.05 L 35.242 69.75 L 48.369 77.613 L 61.496 85.477 L 61.496 85.477 Z  M 52.091 60.381 L 75.254 47.5 L 88.135 70.663 L 64.971 83.544 L 52.091 60.381 Z " fill-rule="evenodd" fill="none"/><path d=" M 1.671 103.582 C -1.884 97.19 0.42 89.114 6.812 85.56 C 13.204 82.005 21.28 84.309 24.834 90.701 C 28.389 97.093 26.085 105.168 19.693 108.723 C 13.301 112.278 5.225 109.974 1.671 103.582 L 1.671 103.582 Z  M 61.496 85.477 L 48.123 92.913 L 34.75 100.35 L 34.996 85.05 L 35.242 69.75 L 48.369 77.613 L 61.496 85.477 L 61.496 85.477 Z  M 52.091 60.381 L 75.254 47.5 L 88.135 70.663 L 64.971 83.544 L 52.091 60.381 Z " fill-rule="evenodd" fill="none" mask="url(#_mask_OlcJUxg8cf1s56ujS1JvioTd3paqFhlx)" vector-effect="non-scaling-stroke" stroke-width="8" stroke="rgb(189,186,179)" stroke-linejoin="miter" stroke-linecap="square" stroke-miterlimit="3"/><mask id="_mask_fDeRL0NDxwpZ6uGEAzCBuGft24rHTXeP"><path d=" M 89.806 56.082 C 86.251 49.69 88.555 41.614 94.947 38.06 C 101.339 34.505 109.414 36.809 112.969 43.201 C 116.523 49.593 114.22 57.668 107.828 61.223 C 101.436 64.778 93.36 62.474 89.806 56.082 L 89.806 56.082 Z  M 149.631 37.977 L 136.258 45.413 L 122.884 52.85 L 123.131 37.55 L 123.377 22.25 L 136.504 30.113 L 149.631 37.977 L 149.631 37.977 Z  M 140.225 12.881 L 163.389 0 L 176.27 23.163 L 153.106 36.044 L 140.225 12.881 Z " fill-rule="evenodd" fill="white" stroke="none"/></mask><path d=" M 89.806 56.082 C 86.251 49.69 88.555 41.614 94.947 38.06 C 101.339 34.505 109.414 36.809 112.969 43.201 C 116.523 49.593 114.22 57.668 107.828 61.223 C 101.436 64.778 93.36 62.474 89.806 56.082 L 89.806 56.082 Z  M 149.631 37.977 L 136.258 45.413 L 122.884 52.85 L 123.131 37.55 L 123.377 22.25 L 136.504 30.113 L 149.631 37.977 L 149.631 37.977 Z  M 140.225 12.881 L 163.389 0 L 176.27 23.163 L 153.106 36.044 L 140.225 12.881 Z " fill-rule="evenodd" fill="none"/><path d=" M 89.806 56.082 C 86.251 49.69 88.555 41.614 94.947 38.06 C 101.339 34.505 109.414 36.809 112.969 43.201 C 116.523 49.593 114.22 57.668 107.828 61.223 C 101.436 64.778 93.36 62.474 89.806 56.082 L 89.806 56.082 Z  M 149.631 37.977 L 136.258 45.413 L 122.884 52.85 L 123.131 37.55 L 123.377 22.25 L 136.504 30.113 L 149.631 37.977 L 149.631 37.977 Z  M 140.225 12.881 L 163.389 0 L 176.27 23.163 L 153.106 36.044 L 140.225 12.881 Z " fill-rule="evenodd" fill="none" mask="url(#_mask_fDeRL0NDxwpZ6uGEAzCBuGft24rHTXeP)" vector-effect="non-scaling-stroke" stroke-width="8" stroke="rgb(189,186,179)" stroke-linejoin="miter" stroke-linecap="square" stroke-miterlimit="3"/><mask id="_mask_3JVWajFb5xGLRCcEki8q01W0mdH1dtqn"><path d=" M 177.94 9.241 C 174.386 2.849 176.689 -5.226 183.082 -8.781 C 189.474 -12.336 197.549 -10.032 201.104 -3.64 C 204.658 2.752 202.354 10.828 195.962 14.382 C 189.57 17.937 181.495 15.633 177.94 9.241 L 177.94 9.241 Z  M 237.766 -8.864 L 224.393 -1.427 L 211.019 6.009 L 211.265 -9.291 L 211.512 -24.591 L 224.639 -16.727 L 237.766 -8.864 L 237.766 -8.864 Z  M 228.36 -33.96 L 251.523 -46.841 L 264.404 -23.677 L 241.241 -10.797 L 228.36 -33.96 Z " fill-rule="evenodd" fill="white" stroke="none"/></mask><path d=" M 177.94 9.241 C 174.386 2.849 176.689 -5.226 183.082 -8.781 C 189.474 -12.336 197.549 -10.032 201.104 -3.64 C 204.658 2.752 202.354 10.828 195.962 14.382 C 189.57 17.937 181.495 15.633 177.94 9.241 L 177.94 9.241 Z  M 237.766 -8.864 L 224.393 -1.427 L 211.019 6.009 L 211.265 -9.291 L 211.512 -24.591 L 224.639 -16.727 L 237.766 -8.864 L 237.766 -8.864 Z  M 228.36 -33.96 L 251.523 -46.841 L 264.404 -23.677 L 241.241 -10.797 L 228.36 -33.96 Z " fill-rule="evenodd" fill="none"/><path d=" M 177.94 9.241 C 174.386 2.849 176.689 -5.226 183.082 -8.781 C 189.474 -12.336 197.549 -10.032 201.104 -3.64 C 204.658 2.752 202.354 10.828 195.962 14.382 C 189.57 17.937 181.495 15.633 177.94 9.241 L 177.94 9.241 Z  M 237.766 -8.864 L 224.393 -1.427 L 211.019 6.009 L 211.265 -9.291 L 211.512 -24.591 L 224.639 -16.727 L 237.766 -8.864 L 237.766 -8.864 Z  M 228.36 -33.96 L 251.523 -46.841 L 264.404 -23.677 L 241.241 -10.797 L 228.36 -33.96 Z " fill-rule="evenodd" fill="none" mask="url(#_mask_3JVWajFb5xGLRCcEki8q01W0mdH1dtqn)" vector-effect="non-scaling-stroke" stroke-width="8" stroke="rgb(189,186,179)" stroke-linejoin="miter" stroke-linecap="square" stroke-miterlimit="3"/><mask id="_mask_rf9gURRObZfrbAjtoaBKPe2NVQdUp4Na"><path d=" M 89.806 119.635 C 86.251 113.243 88.555 105.167 94.947 101.613 C 101.339 98.058 109.414 100.362 112.969 106.754 C 116.523 113.146 114.22 121.222 107.828 124.776 C 101.436 128.331 93.36 126.027 89.806 119.635 L 89.806 119.635 Z  M 149.631 101.53 L 136.258 108.967 L 122.884 116.403 L 123.131 101.103 L 123.377 85.803 L 136.504 93.666 L 149.631 101.53 L 149.631 101.53 Z  M 140.225 76.434 L 163.389 63.553 L 176.27 86.716 L 153.106 99.597 L 140.225 76.434 Z " fill-rule="evenodd" fill="white" stroke="none"/></mask><path d=" M 89.806 119.635 C 86.251 113.243 88.555 105.167 94.947 101.613 C 101.339 98.058 109.414 100.362 112.969 106.754 C 116.523 113.146 114.22 121.222 107.828 124.776 C 101.436 128.331 93.36 126.027 89.806 119.635 L 89.806 119.635 Z  M 149.631 101.53 L 136.258 108.967 L 122.884 116.403 L 123.131 101.103 L 123.377 85.803 L 136.504 93.666 L 149.631 101.53 L 149.631 101.53 Z  M 140.225 76.434 L 163.389 63.553 L 176.27 86.716 L 153.106 99.597 L 140.225 76.434 Z " fill-rule="evenodd" fill="none"/><path d=" M 89.806 119.635 C 86.251 113.243 88.555 105.167 94.947 101.613 C 101.339 98.058 109.414 100.362 112.969 106.754 C 116.523 113.146 114.22 121.222 107.828 124.776 C 101.436 128.331 93.36 126.027 89.806 119.635 L 89.806 119.635 Z  M 149.631 101.53 L 136.258 108.967 L 122.884 116.403 L 123.131 101.103 L 123.377 85.803 L 136.504 93.666 L 149.631 101.53 L 149.631 101.53 Z  M 140.225 76.434 L 163.389 63.553 L 176.27 86.716 L 153.106 99.597 L 140.225 76.434 Z " fill-rule="evenodd" fill="none" mask="url(#_mask_rf9gURRObZfrbAjtoaBKPe2NVQdUp4Na)" vector-effect="non-scaling-stroke" stroke-width="8" stroke="rgb(189,186,179)" stroke-linejoin="miter" stroke-linecap="square" stroke-miterlimit="3"/><mask id="_mask_hMGCeNGJpJJsApVM0gcAnEzpARCzBWzb"><path d=" M 177.94 72.135 C 174.386 65.743 176.689 57.667 183.082 54.113 C 189.474 50.558 197.549 52.862 201.104 59.254 C 204.658 65.646 202.354 73.722 195.962 77.276 C 189.57 80.831 181.495 78.527 177.94 72.135 L 177.94 72.135 Z  M 237.766 54.03 L 224.393 61.467 L 211.019 68.903 L 211.265 53.603 L 211.512 38.303 L 224.639 46.166 L 237.766 54.03 L 237.766 54.03 Z  M 228.36 28.934 L 251.523 16.053 L 264.404 39.216 L 241.241 52.097 L 228.36 28.934 Z " fill-rule="evenodd" fill="white" stroke="none"/></mask><path d=" M 177.94 72.135 C 174.386 65.743 176.689 57.667 183.082 54.113 C 189.474 50.558 197.549 52.862 201.104 59.254 C 204.658 65.646 202.354 73.722 195.962 77.276 C 189.57 80.831 181.495 78.527 177.94 72.135 L 177.94 72.135 Z  M 237.766 54.03 L 224.393 61.467 L 211.019 68.903 L 211.265 53.603 L 211.512 38.303 L 224.639 46.166 L 237.766 54.03 L 237.766 54.03 Z  M 228.36 28.934 L 251.523 16.053 L 264.404 39.216 L 241.241 52.097 L 228.36 28.934 Z " fill-rule="evenodd" fill="none"/><path d=" M 177.94 72.135 C 174.386 65.743 176.689 57.667 183.082 54.113 C 189.474 50.558 197.549 52.862 201.104 59.254 C 204.658 65.646 202.354 73.722 195.962 77.276 C 189.57 80.831 181.495 78.527 177.94 72.135 L 177.94 72.135 Z  M 237.766 54.03 L 224.393 61.467 L 211.019 68.903 L 211.265 53.603 L 211.512 38.303 L 224.639 46.166 L 237.766 54.03 L 237.766 54.03 Z  M 228.36 28.934 L 251.523 16.053 L 264.404 39.216 L 241.241 52.097 L 228.36 28.934 Z " fill-rule="evenodd" fill="none" mask="url(#_mask_hMGCeNGJpJJsApVM0gcAnEzpARCzBWzb)" vector-effect="non-scaling-stroke" stroke-width="8" stroke="rgb(189,186,179)" stroke-linejoin="miter" stroke-linecap="square" stroke-miterlimit="3"/><mask id="_mask_xbbAJTiB96bnBMqAJoPJeS7bcnmdYVUg"><path d=" M 266.075 24.635 C 262.52 18.243 264.824 10.167 271.216 6.613 C 277.608 3.058 285.684 5.362 289.238 11.754 C 292.793 18.146 290.489 26.222 284.097 29.776 C 277.705 33.331 269.63 31.027 266.075 24.635 L 266.075 24.635 Z  M 325.901 6.53 L 312.527 13.967 L 299.154 21.403 L 299.4 6.103 L 299.646 -9.197 L 312.774 -1.334 L 325.901 6.53 L 325.901 6.53 Z  M 316.495 -18.566 L 339.658 -31.447 L 352.539 -8.284 L 329.376 4.597 L 316.495 -18.566 Z " fill-rule="evenodd" fill="white" stroke="none"/></mask><path d=" M 266.075 24.635 C 262.52 18.243 264.824 10.167 271.216 6.613 C 277.608 3.058 285.684 5.362 289.238 11.754 C 292.793 18.146 290.489 26.222 284.097 29.776 C 277.705 33.331 269.63 31.027 266.075 24.635 L 266.075 24.635 Z  M 325.901 6.53 L 312.527 13.967 L 299.154 21.403 L 299.4 6.103 L 299.646 -9.197 L 312.774 -1.334 L 325.901 6.53 L 325.901 6.53 Z  M 316.495 -18.566 L 339.658 -31.447 L 352.539 -8.284 L 329.376 4.597 L 316.495 -18.566 Z " fill-rule="evenodd" fill="none"/><path d=" M 266.075 24.635 C 262.52 18.243 264.824 10.167 271.216 6.613 C 277.608 3.058 285.684 5.362 289.238 11.754 C 292.793 18.146 290.489 26.222 284.097 29.776 C 277.705 33.331 269.63 31.027 266.075 24.635 L 266.075 24.635 Z  M 325.901 6.53 L 312.527 13.967 L 299.154 21.403 L 299.4 6.103 L 299.646 -9.197 L 312.774 -1.334 L 325.901 6.53 L 325.901 6.53 Z  M 316.495 -18.566 L 339.658 -31.447 L 352.539 -8.284 L 329.376 4.597 L 316.495 -18.566 Z " fill-rule="evenodd" fill="none" mask="url(#_mask_xbbAJTiB96bnBMqAJoPJeS7bcnmdYVUg)" vector-effect="non-scaling-stroke" stroke-width="8" stroke="rgb(189,186,179)" stroke-linejoin="miter" stroke-linecap="square" stroke-miterlimit="3"/><mask id="_mask_fdfw8HSuNsFmNhNwUmJdlbDYQGNKH5Am"><path d=" M 165.059 142.726 C 161.505 136.334 163.809 128.258 170.201 124.704 C 176.593 121.149 184.668 123.453 188.223 129.845 C 191.777 136.237 189.474 144.312 183.082 147.867 C 176.689 151.421 168.614 149.118 165.059 142.726 L 165.059 142.726 Z  M 224.885 124.62 L 211.512 132.057 L 198.138 139.494 L 198.385 124.194 L 198.631 108.894 L 211.758 116.757 L 224.885 124.62 L 224.885 124.62 Z  M 215.479 99.525 L 238.643 86.644 L 251.523 109.807 L 228.36 122.688 L 215.479 99.525 Z " fill-rule="evenodd" fill="white" stroke="none"/></mask><path d=" M 165.059 142.726 C 161.505 136.334 163.809 128.258 170.201 124.704 C 176.593 121.149 184.668 123.453 188.223 129.845 C 191.777 136.237 189.474 144.312 183.082 147.867 C 176.689 151.421 168.614 149.118 165.059 142.726 L 165.059 142.726 Z  M 224.885 124.62 L 211.512 132.057 L 198.138 139.494 L 198.385 124.194 L 198.631 108.894 L 211.758 116.757 L 224.885 124.62 L 224.885 124.62 Z  M 215.479 99.525 L 238.643 86.644 L 251.523 109.807 L 228.36 122.688 L 215.479 99.525 Z " fill-rule="evenodd" fill="none"/><path d=" M 165.059 142.726 C 161.505 136.334 163.809 128.258 170.201 124.704 C 176.593 121.149 184.668 123.453 188.223 129.845 C 191.777 136.237 189.474 144.312 183.082 147.867 C 176.689 151.421 168.614 149.118 165.059 142.726 L 165.059 142.726 Z  M 224.885 124.62 L 211.512 132.057 L 198.138 139.494 L 198.385 124.194 L 198.631 108.894 L 211.758 116.757 L 224.885 124.62 L 224.885 124.62 Z  M 215.479 99.525 L 238.643 86.644 L 251.523 109.807 L 228.36 122.688 L 215.479 99.525 Z " fill-rule="evenodd" fill="none" mask="url(#_mask_fdfw8HSuNsFmNhNwUmJdlbDYQGNKH5Am)" vector-effect="non-scaling-stroke" stroke-width="8" stroke="rgb(189,186,179)" stroke-linejoin="miter" stroke-linecap="square" stroke-miterlimit="3"/><mask id="_mask_0UxgTWrYIBDyR804a2eLXc5Cq33hZJgE"><path d=" M 253.194 95.226 C 249.64 88.834 251.943 80.758 258.335 77.204 C 264.728 73.649 272.803 75.953 276.358 82.345 C 279.912 88.737 277.608 96.812 271.216 100.367 C 264.824 103.921 256.749 101.618 253.194 95.226 L 253.194 95.226 Z  M 313.02 77.12 L 299.646 84.557 L 286.273 91.994 L 286.519 76.694 L 286.766 61.394 L 299.893 69.257 L 313.02 77.12 L 313.02 77.12 Z  M 303.614 52.025 L 326.777 39.144 L 339.658 62.307 L 316.495 75.188 L 303.614 52.025 Z " fill-rule="evenodd" fill="white" stroke="none"/></mask><path d=" M 253.194 95.226 C 249.64 88.834 251.943 80.758 258.335 77.204 C 264.728 73.649 272.803 75.953 276.358 82.345 C 279.912 88.737 277.608 96.812 271.216 100.367 C 264.824 103.921 256.749 101.618 253.194 95.226 L 253.194 95.226 Z  M 313.02 77.12 L 299.646 84.557 L 286.273 91.994 L 286.519 76.694 L 286.766 61.394 L 299.893 69.257 L 313.02 77.12 L 313.02 77.12 Z  M 303.614 52.025 L 326.777 39.144 L 339.658 62.307 L 316.495 75.188 L 303.614 52.025 Z " fill-rule="evenodd" fill="none"/><path d=" M 253.194 95.226 C 249.64 88.834 251.943 80.758 258.335 77.204 C 264.728 73.649 272.803 75.953 276.358 82.345 C 279.912 88.737 277.608 96.812 271.216 100.367 C 264.824 103.921 256.749 101.618 253.194 95.226 L 253.194 95.226 Z  M 313.02 77.12 L 299.646 84.557 L 286.273 91.994 L 286.519 76.694 L 286.766 61.394 L 299.893 69.257 L 313.02 77.12 L 313.02 77.12 Z  M 303.614 52.025 L 326.777 39.144 L 339.658 62.307 L 316.495 75.188 L 303.614 52.025 Z " fill-rule="evenodd" fill="none" mask="url(#_mask_0UxgTWrYIBDyR804a2eLXc5Cq33hZJgE)" vector-effect="non-scaling-stroke" stroke-width="8" stroke="rgb(189,186,179)" stroke-linejoin="miter" stroke-linecap="square" stroke-miterlimit="3"/><mask id="_mask_eWBmWJyXXiDZtYiZTcsrY1DS0aW6UJpz"><path d=" M 341.329 48.385 C 337.774 41.993 340.078 33.917 346.47 30.363 C 352.862 26.808 360.938 29.112 364.492 35.504 C 368.047 41.896 365.743 49.972 359.351 53.526 C 352.959 57.081 344.884 54.777 341.329 48.385 L 341.329 48.385 Z  M 401.155 30.28 L 387.781 37.717 L 374.408 45.153 L 374.654 29.853 L 374.9 14.553 L 388.027 22.416 L 401.155 30.28 L 401.155 30.28 Z  M 391.749 5.184 L 414.912 -7.697 L 427.793 15.466 L 404.63 28.347 L 391.749 5.184 Z " fill-rule="evenodd" fill="white" stroke="none"/></mask><path d=" M 341.329 48.385 C 337.774 41.993 340.078 33.917 346.47 30.363 C 352.862 26.808 360.938 29.112 364.492 35.504 C 368.047 41.896 365.743 49.972 359.351 53.526 C 352.959 57.081 344.884 54.777 341.329 48.385 L 341.329 48.385 Z  M 401.155 30.28 L 387.781 37.717 L 374.408 45.153 L 374.654 29.853 L 374.9 14.553 L 388.027 22.416 L 401.155 30.28 L 401.155 30.28 Z  M 391.749 5.184 L 414.912 -7.697 L 427.793 15.466 L 404.63 28.347 L 391.749 5.184 Z " fill-rule="evenodd" fill="none"/><path d=" M 341.329 48.385 C 337.774 41.993 340.078 33.917 346.47 30.363 C 352.862 26.808 360.938 29.112 364.492 35.504 C 368.047 41.896 365.743 49.972 359.351 53.526 C 352.959 57.081 344.884 54.777 341.329 48.385 L 341.329 48.385 Z  M 401.155 30.28 L 387.781 37.717 L 374.408 45.153 L 374.654 29.853 L 374.9 14.553 L 388.027 22.416 L 401.155 30.28 L 401.155 30.28 Z  M 391.749 5.184 L 414.912 -7.697 L 427.793 15.466 L 404.63 28.347 L 391.749 5.184 Z " fill-rule="evenodd" fill="none" mask="url(#_mask_eWBmWJyXXiDZtYiZTcsrY1DS0aW6UJpz)" vector-effect="non-scaling-stroke" stroke-width="8" stroke="rgb(189,186,179)" stroke-linejoin="miter" stroke-linecap="square" stroke-miterlimit="3"/><mask id="_mask_Q2DGClrtCp7t24dmRX4E8OEfCegmFnDb"><path d=" M 341.329 111.279 C 337.774 104.887 340.078 96.811 346.47 93.257 C 352.862 89.702 360.938 92.006 364.492 98.398 C 368.047 104.79 365.743 112.865 359.351 116.42 C 352.959 119.975 344.884 117.671 341.329 111.279 L 341.329 111.279 Z  M 401.155 93.174 L 387.781 100.61 L 374.408 108.047 L 374.654 92.747 L 374.9 77.447 L 388.027 85.31 L 401.155 93.174 L 401.155 93.174 Z  M 391.749 68.078 L 414.912 55.197 L 427.793 78.36 L 404.63 91.241 L 391.749 68.078 Z " fill-rule="evenodd" fill="white" stroke="none"/></mask><path d=" M 341.329 111.279 C 337.774 104.887 340.078 96.811 346.47 93.257 C 352.862 89.702 360.938 92.006 364.492 98.398 C 368.047 104.79 365.743 112.865 359.351 116.42 C 352.959 119.975 344.884 117.671 341.329 111.279 L 341.329 111.279 Z  M 401.155 93.174 L 387.781 100.61 L 374.408 108.047 L 374.654 92.747 L 374.9 77.447 L 388.027 85.31 L 401.155 93.174 L 401.155 93.174 Z  M 391.749 68.078 L 414.912 55.197 L 427.793 78.36 L 404.63 91.241 L 391.749 68.078 Z " fill-rule="evenodd" fill="none"/><path d=" M 341.329 111.279 C 337.774 104.887 340.078 96.811 346.47 93.257 C 352.862 89.702 360.938 92.006 364.492 98.398 C 368.047 104.79 365.743 112.865 359.351 116.42 C 352.959 119.975 344.884 117.671 341.329 111.279 L 341.329 111.279 Z  M 401.155 93.174 L 387.781 100.61 L 374.408 108.047 L 374.654 92.747 L 374.9 77.447 L 388.027 85.31 L 401.155 93.174 L 401.155 93.174 Z  M 391.749 68.078 L 414.912 55.197 L 427.793 78.36 L 404.63 91.241 L 391.749 68.078 Z " fill-rule="evenodd" fill="none" mask="url(#_mask_Q2DGClrtCp7t24dmRX4E8OEfCegmFnDb)" vector-effect="non-scaling-stroke" stroke-width="8" stroke="rgb(189,186,179)" stroke-linejoin="miter" stroke-linecap="square" stroke-miterlimit="3"/><mask id="_mask_tArew3eFxYO9hdbqdGTlzBXZQGWsRntK"><path d=" M 429.464 63.779 C 425.909 57.387 428.213 49.311 434.605 45.757 C 440.997 42.202 449.073 44.506 452.627 50.898 C 456.182 57.29 453.878 65.365 447.486 68.92 C 441.094 72.475 433.018 70.171 429.464 63.779 L 429.464 63.779 Z  M 489.289 45.674 L 475.916 53.11 L 462.543 60.547 L 462.789 45.247 L 463.035 29.947 L 476.162 37.81 L 489.289 45.674 L 489.289 45.674 Z  M 479.884 20.578 L 503.047 7.697 L 515.928 30.86 L 492.764 43.741 L 479.884 20.578 Z " fill-rule="evenodd" fill="white" stroke="none"/></mask><path d=" M 429.464 63.779 C 425.909 57.387 428.213 49.311 434.605 45.757 C 440.997 42.202 449.073 44.506 452.627 50.898 C 456.182 57.29 453.878 65.365 447.486 68.92 C 441.094 72.475 433.018 70.171 429.464 63.779 L 429.464 63.779 Z  M 489.289 45.674 L 475.916 53.11 L 462.543 60.547 L 462.789 45.247 L 463.035 29.947 L 476.162 37.81 L 489.289 45.674 L 489.289 45.674 Z  M 479.884 20.578 L 503.047 7.697 L 515.928 30.86 L 492.764 43.741 L 479.884 20.578 Z " fill-rule="evenodd" fill="none"/><path d=" M 429.464 63.779 C 425.909 57.387 428.213 49.311 434.605 45.757 C 440.997 42.202 449.073 44.506 452.627 50.898 C 456.182 57.29 453.878 65.365 447.486 68.92 C 441.094 72.475 433.018 70.171 429.464 63.779 L 429.464 63.779 Z  M 489.289 45.674 L 475.916 53.11 L 462.543 60.547 L 462.789 45.247 L 463.035 29.947 L 476.162 37.81 L 489.289 45.674 L 489.289 45.674 Z  M 479.884 20.578 L 503.047 7.697 L 515.928 30.86 L 492.764 43.741 L 479.884 20.578 Z " fill-rule="evenodd" fill="none" mask="url(#_mask_tArew3eFxYO9hdbqdGTlzBXZQGWsRntK)" vector-effect="non-scaling-stroke" stroke-width="8" stroke="rgb(189,186,179)" stroke-linejoin="miter" stroke-linecap="square" stroke-miterlimit="3"/><mask id="_mask_lamUUrNqKphmDefgXi6jO4ml0LNJWg1y"><path d=" M 517.599 16.938 C 514.044 10.546 516.348 2.47 522.74 -1.084 C 529.132 -4.639 537.207 -2.335 540.762 4.057 C 544.316 10.449 542.013 18.525 535.621 22.079 C 529.228 25.634 521.153 23.33 517.599 16.938 L 517.599 16.938 Z  M 577.424 -1.167 L 564.051 6.27 L 550.677 13.706 L 550.924 -1.594 L 551.17 -16.894 L 564.297 -9.03 L 577.424 -1.167 L 577.424 -1.167 Z  M 568.018 -26.263 L 591.182 -39.144 L 604.063 -15.98 L 580.899 -3.1 L 568.018 -26.263 Z " fill-rule="evenodd" fill="white" stroke="none"/></mask><path d=" M 517.599 16.938 C 514.044 10.546 516.348 2.47 522.74 -1.084 C 529.132 -4.639 537.207 -2.335 540.762 4.057 C 544.316 10.449 542.013 18.525 535.621 22.079 C 529.228 25.634 521.153 23.33 517.599 16.938 L 517.599 16.938 Z  M 577.424 -1.167 L 564.051 6.27 L 550.677 13.706 L 550.924 -1.594 L 551.17 -16.894 L 564.297 -9.03 L 577.424 -1.167 L 577.424 -1.167 Z  M 568.018 -26.263 L 591.182 -39.144 L 604.063 -15.98 L 580.899 -3.1 L 568.018 -26.263 Z " fill-rule="evenodd" fill="none"/><path d=" M 517.599 16.938 C 514.044 10.546 516.348 2.47 522.74 -1.084 C 529.132 -4.639 537.207 -2.335 540.762 4.057 C 544.316 10.449 542.013 18.525 535.621 22.079 C 529.228 25.634 521.153 23.33 517.599 16.938 L 517.599 16.938 Z  M 577.424 -1.167 L 564.051 6.27 L 550.677 13.706 L 550.924 -1.594 L 551.17 -16.894 L 564.297 -9.03 L 577.424 -1.167 L 577.424 -1.167 Z  M 568.018 -26.263 L 591.182 -39.144 L 604.063 -15.98 L 580.899 -3.1 L 568.018 -26.263 Z " fill-rule="evenodd" fill="none" mask="url(#_mask_lamUUrNqKphmDefgXi6jO4ml0LNJWg1y)" vector-effect="non-scaling-stroke" stroke-width="8" stroke="rgb(189,186,179)" stroke-linejoin="miter" stroke-linecap="square" stroke-miterlimit="3"/><mask id="_mask_VFZmL75nDDL1xvO4MhXpin3Ioe7mMBlI"><path d=" M 429.464 3.188 C 425.909 -3.204 428.213 -11.28 434.605 -14.834 C 440.997 -18.389 449.073 -16.085 452.627 -9.693 C 456.182 -3.301 453.878 4.775 447.486 8.329 C 441.094 11.884 433.018 9.58 429.464 3.188 L 429.464 3.188 Z  M 489.289 -14.917 L 475.916 -7.48 L 462.543 -0.044 L 462.789 -15.344 L 463.035 -30.644 L 476.162 -22.78 L 489.289 -14.917 L 489.289 -14.917 Z  M 479.884 -40.013 L 503.047 -52.894 L 515.928 -29.73 L 492.764 -16.85 L 479.884 -40.013 Z " fill-rule="evenodd" fill="white" stroke="none"/></mask><path d=" M 429.464 3.188 C 425.909 -3.204 428.213 -11.28 434.605 -14.834 C 440.997 -18.389 449.073 -16.085 452.627 -9.693 C 456.182 -3.301 453.878 4.775 447.486 8.329 C 441.094 11.884 433.018 9.58 429.464 3.188 L 429.464 3.188 Z  M 489.289 -14.917 L 475.916 -7.48 L 462.543 -0.044 L 462.789 -15.344 L 463.035 -30.644 L 476.162 -22.78 L 489.289 -14.917 L 489.289 -14.917 Z  M 479.884 -40.013 L 503.047 -52.894 L 515.928 -29.73 L 492.764 -16.85 L 479.884 -40.013 Z " fill-rule="evenodd" fill="none"/><path d=" M 429.464 3.188 C 425.909 -3.204 428.213 -11.28 434.605 -14.834 C 440.997 -18.389 449.073 -16.085 452.627 -9.693 C 456.182 -3.301 453.878 4.775 447.486 8.329 C 441.094 11.884 433.018 9.58 429.464 3.188 L 429.464 3.188 Z  M 489.289 -14.917 L 475.916 -7.48 L 462.543 -0.044 L 462.789 -15.344 L 463.035 -30.644 L 476.162 -22.78 L 489.289 -14.917 L 489.289 -14.917 Z  M 479.884 -40.013 L 503.047 -52.894 L 515.928 -29.73 L 492.764 -16.85 L 479.884 -40.013 Z " fill-rule="evenodd" fill="none" mask="url(#_mask_VFZmL75nDDL1xvO4MhXpin3Ioe7mMBlI)" vector-effect="non-scaling-stroke" stroke-width="8" stroke="rgb(189,186,179)" stroke-linejoin="miter" stroke-linecap="square" stroke-miterlimit="3"/><mask id="_mask_5RFx5dw7XG3y6mcf8KXKIxLr5iIKby6w"><path d=" M -6.965 40.688 C -10.519 34.296 -8.216 26.22 -1.824 22.666 C 4.569 19.111 12.644 21.415 16.199 27.807 C 19.753 34.199 17.449 42.275 11.057 45.829 C 4.665 49.384 -3.41 47.08 -6.965 40.688 L -6.965 40.688 Z  M 52.861 22.583 L 39.487 30.02 L 26.114 37.456 L 26.36 22.156 L 26.607 6.856 L 39.734 14.72 L 52.861 22.583 L 52.861 22.583 Z  M 43.455 -2.513 L 66.618 -15.394 L 79.499 7.77 L 56.336 20.65 L 43.455 -2.513 Z " fill-rule="evenodd" fill="white" stroke="none"/></mask><path d=" M -6.965 40.688 C -10.519 34.296 -8.216 26.22 -1.824 22.666 C 4.569 19.111 12.644 21.415 16.199 27.807 C 19.753 34.199 17.449 42.275 11.057 45.829 C 4.665 49.384 -3.41 47.08 -6.965 40.688 L -6.965 40.688 Z  M 52.861 22.583 L 39.487 30.02 L 26.114 37.456 L 26.36 22.156 L 26.607 6.856 L 39.734 14.72 L 52.861 22.583 L 52.861 22.583 Z  M 43.455 -2.513 L 66.618 -15.394 L 79.499 7.77 L 56.336 20.65 L 43.455 -2.513 Z " fill-rule="evenodd" fill="none"/><path d=" M -6.965 40.688 C -10.519 34.296 -8.216 26.22 -1.824 22.666 C 4.569 19.111 12.644 21.415 16.199 27.807 C 19.753 34.199 17.449 42.275 11.057 45.829 C 4.665 49.384 -3.41 47.08 -6.965 40.688 L -6.965 40.688 Z  M 52.861 22.583 L 39.487 30.02 L 26.114 37.456 L 26.36 22.156 L 26.607 6.856 L 39.734 14.72 L 52.861 22.583 L 52.861 22.583 Z  M 43.455 -2.513 L 66.618 -15.394 L 79.499 7.77 L 56.336 20.65 L 43.455 -2.513 Z " fill-rule="evenodd" fill="none" mask="url(#_mask_5RFx5dw7XG3y6mcf8KXKIxLr5iIKby6w)" vector-effect="non-scaling-stroke" stroke-width="8" stroke="rgb(189,186,179)" stroke-linejoin="miter" stroke-linecap="square" stroke-miterlimit="3"/><rect x="0" y="95" width="1919" height="769" transform="matrix(1,0,0,1,0,0)" fill="rgb(249,249,249)"/><g clip-path="url(#_clipPath_ZaLoqt7vRnZlq9tiMXlQYOSRlY9zYwK0)"><text transform="matrix(1,0,0,1,615.5,504.135)" style="font-family:'Paprika';font-weight:400;font-size:63px;font-style:normal;fill:#000000;stroke:none;">Schránka je prázdná</text></g><defs><clipPath id="_clipPath_ZaLoqt7vRnZlq9tiMXlQYOSRlY9zYwK0"><rect x="0" y="0" width="688" height="89.397" transform="matrix(1,0,0,1,615.5,432)"/></clipPath></defs></g></svg>