<?xml version="1.0" encoding="UTF-8" standalone="no" ?>
<!DOCTYPE svg PUBLIC "-//W3C//DTD SVG 1.1//EN" "http://www.w3.org/Graphics/SVG/1.1/DTD/svg11.dtd">
<svg xmlns="http://www.w3.org/2000/svg" xmlns:xlink="http://www.w3.org/1999/xlink" version="1.1" width="1080" height="1080" viewBox="0 0 1080 1080" xml:space="preserve">
<desc>Created with Fabric.js 5.2.4</desc>
<defs>
</defs>
<rect x="0" y="0" width="100%" height="100%" fill="transparent"></rect>
<g transform="matrix(1 0 0 1 540 540)" id="89f9a062-3009-4dd1-8ab4-52bb49f23b1e"  >
<rect style="stroke: none; stroke-width: 1; stroke-dasharray: none; stroke-linecap: butt; stroke-dashoffset: 0; stroke-linejoin: miter; stroke-miterlimit: 4; fill: rgb(255,255,255); fill-rule: nonzero; opacity: 1; visibility: hidden;" vector-effect="non-scaling-stroke"  x="-540" y="-540" rx="0" ry="0" width="1080" height="1080" />
</g>
<g transform="matrix(1 0 0 1 540 540)" id="9d88b7b1-e939-44de-9a74-63b0efe87fab"  >
</g>
<g transform="matrix(16.63 0 0 16.63 540 540)"  >
<g style="" vector-effect="non-scaling-stroke"   >
		<g transform="matrix(1 0 0 1 0 10.56)"  >
<path style="stroke: none; stroke-width: 1; stroke-dasharray: none; stroke-linecap: butt; stroke-dashoffset: 0; stroke-linejoin: miter; stroke-miterlimit: 4; fill: rgb(255,255,255); fill-rule: nonzero; opacity: 1;" vector-effect="non-scaling-stroke"  transform=" translate(-19.43, -29.98)" d="M 37.85 28.985 L 1 28.985 C 0.44699999999999995 28.985 0 29.433 0 29.985 C 0 30.537 0.447 30.985 1 30.985 L 37.85 30.985 C 38.403 30.985 38.85 30.537 38.85 29.985 C 38.85 29.433 38.403 28.985 37.85 28.985 z" stroke-linecap="round" />
</g>
		<g transform="matrix(1 0 0 1 0 0)"  >
<path style="stroke: none; stroke-width: 1; stroke-dasharray: none; stroke-linecap: butt; stroke-dashoffset: 0; stroke-linejoin: miter; stroke-miterlimit: 4; fill: rgb(255,255,255); fill-rule: nonzero; opacity: 1;" vector-effect="non-scaling-stroke"  transform=" translate(-19.43, -19.43)" d="M 37.85 18.425 L 1 18.425 C 0.44699999999999995 18.425 0 18.873 0 19.425 C 0 19.977 0.447 20.425 1 20.425 L 37.85 20.425 C 38.403 20.425 38.85 19.977 38.85 19.425 C 38.85 18.873 38.403 18.425 37.85 18.425 z" stroke-linecap="round" />
</g>
		<g transform="matrix(1 0 0 1 0 -10.56)"  >
<path style="stroke: none; stroke-width: 1; stroke-dasharray: none; stroke-linecap: butt; stroke-dashoffset: 0; stroke-linejoin: miter; stroke-miterlimit: 4; fill: rgb(255,255,255); fill-rule: nonzero; opacity: 1;" vector-effect="non-scaling-stroke"  transform=" translate(-19.43, -8.87)" d="M 1 9.866 L 37.85 9.866 C 38.403 9.866 38.85 9.418 38.85 8.866 C 38.85 8.314 38.403 7.866 37.85 7.866 L 1 7.866 C 0.44699999999999995 7.866 0 8.314 0 8.866 C 0 9.418 0.447 9.866 1 9.866 z" stroke-linecap="round" />
</g>
</g>
</g>
</svg>