<?xml version="1.0" encoding="UTF-8" standalone="no"?><!-- Generator: Gravit.io --><svg xmlns="http://www.w3.org/2000/svg" xmlns:xlink="http://www.w3.org/1999/xlink" style="isolation:isolate" viewBox="0 0 512 512" width="512pt" height="512pt"><defs><clipPath id="_clipPath_MlQdJmwEtqwTSPmpyTvjVDna51l2wvYW"><rect width="512" height="512"/></clipPath></defs><g clip-path="url(#_clipPath_MlQdJmwEtqwTSPmpyTvjVDna51l2wvYW)"><path d=" M 225 225 L 160 225 C 142.891 225 129 238.891 129 256 L 129 256 C 129 273.109 142.891 287 160 287 L 225 287 L 225 352 C 225 369.109 238.891 383 256 383 L 256 383 C 273.109 383 287 369.109 287 352 L 287 287 L 352 287 C 369.109 287 383 273.109 383 256 L 383 256 C 383 238.891 369.109 225 352 225 L 287 225 L 287 160 C 287 142.891 273.109 129 256 129 L 256 129 C 238.891 129 225 142.891 225 160 L 225 225 L 225 225 Z " fill-rule="evenodd" fill="rgb(255,255,255)"/></g></svg>