<?xml version="1.0" encoding="UTF-8" standalone="no" ?>
<!DOCTYPE svg PUBLIC "-//W3C//DTD SVG 1.1//EN" "http://www.w3.org/Graphics/SVG/1.1/DTD/svg11.dtd">
<svg xmlns="http://www.w3.org/2000/svg" xmlns:xlink="http://www.w3.org/1999/xlink" version="1.1" width="1080" height="1080" viewBox="0 0 1080 1080" xml:space="preserve">
<desc>Created with Fabric.js 5.2.4</desc>
<defs>
</defs>
<rect x="0" y="0" width="100%" height="100%" fill="transparent"></rect>
<g transform="matrix(1 0 0 1 540 540)" id="89f9a062-3009-4dd1-8ab4-52bb49f23b1e"  >
<rect style="stroke: none; stroke-width: 1; stroke-dasharray: none; stroke-linecap: butt; stroke-dashoffset: 0; stroke-linejoin: miter; stroke-miterlimit: 4; fill: rgb(255,255,255); fill-rule: nonzero; opacity: 1; visibility: hidden;" vector-effect="non-scaling-stroke"  x="-540" y="-540" rx="0" ry="0" width="1080" height="1080" />
</g>
<g transform="matrix(1 0 0 1 540 540)" id="9d88b7b1-e939-44de-9a74-63b0efe87fab"  >
</g>
<g transform="matrix(5.26 0 0 5.26 540.15 540.15)"  >
<g style="" vector-effect="non-scaling-stroke"   >
		<g transform="matrix(1 0 0 1 0 0)"  >
<path style="stroke: none; stroke-width: 1; stroke-dasharray: none; stroke-linecap: butt; stroke-dashoffset: 0; stroke-linejoin: miter; stroke-miterlimit: 4; fill: rgb(255,255,255); fill-rule: nonzero; opacity: 1;" vector-effect="non-scaling-stroke"  transform=" translate(-64, -64)" d="M 64 39 C 50.192881254230166 39 39 50.192881254230166 39 64 C 39 77.80711874576983 50.192881254230166 89 64 89 C 77.80711874576984 89 89 77.80711874576983 89 64 C 89 50.192881254230166 77.80711874576984 39 64 39 Z M 64 83 C 53.506589753214925 83 45 74.49341024678507 45 64 C 45 53.506589753214925 53.506589753214925 45 64 45 C 74.49341024678507 45 83 53.506589753214925 83 64 C 83 74.49341024678507 74.49341024678507 83 64 83 Z" stroke-linecap="round" />
</g>
		<g transform="matrix(1 0 0 1 0 0)"  >
<path style="stroke: none; stroke-width: 1; stroke-dasharray: none; stroke-linecap: butt; stroke-dashoffset: 0; stroke-linejoin: miter; stroke-miterlimit: 4; fill: rgb(255,255,255); fill-rule: nonzero; opacity: 1;" vector-effect="non-scaling-stroke"  transform=" translate(-64, -64)" d="M 121 48 L 112.07 48 C 111.6437649747439 47.996834325943716 111.26638721422839 47.72383764812399 111.13 47.32 C 110.54883666620205 45.66938278312963 109.88124762733091 44.0504793638671 109.13 42.470000000000006 C 108.93773199164717 42.08764345351975 109.01009552895505 41.62532085405276 109.31 41.32 L 115.62 35 C 116.93290913942357 33.68722482406226 117.67050507627293 31.90663918706363 117.67050507627293 30.05 C 117.67050507627293 28.193360812936373 116.93290913942357 26.412775175937742 115.62 25.1 L 102.89 12.38 C 101.57722482406226 11.067090860576434 99.79663918706363 10.329494923727065 97.94 10.329494923727065 C 96.08336081293636 10.329494923727065 94.30277517593774 11.067090860576434 92.99 12.380000000000003 L 86.67999999999999 18.69 C 86.37467914594723 18.98990447104496 85.91235654648023 19.062268008352838 85.52999999999999 18.87 C 83.94962575065186 18.118515375876378 82.3307097099063 17.45092113226996 80.67999999999996 16.869999999999994 C 80.276162351876 16.73361278577161 80.00316567405628 16.3562350252561 79.99999999999999 15.930000000000001 L 79.99999999999999 7 C 79.99999999999999 3.1340067511844456 76.86599324881554 0 72.99999999999999 0 L 55 0 C 51.134006751184444 0 48 3.1340067511844456 48 7 L 48 15.93 C 47.996834325943716 16.356235025256098 47.72383764812399 16.733612785771605 47.32 16.87 C 45.66938278312963 17.451163333797947 44.050479363867055 18.11875237266911 42.46999999999997 18.870000000000015 C 42.08764345351976 19.062268008352834 41.62532085405276 18.989904471044955 41.32 18.69 L 35 12.38 C 33.68722482406226 11.067090860576434 31.90663918706363 10.329494923727069 30.05 10.329494923727069 C 28.19336081293637 10.329494923727069 26.41277517593774 11.067090860576437 25.099999999999998 12.380000000000003 L 12.38 25.11 C 11.067090860576435 26.42277517593774 10.329494923727069 28.20336081293637 10.329494923727069 30.06 C 10.329494923727069 31.916639187063627 11.067090860576435 33.69722482406226 12.38 35.01 L 18.69 41.32 C 18.989904471044955 41.62532085405276 19.062268008352834 42.08764345351976 18.87 42.47 C 18.11851537587637 44.05037424934814 17.450921132269958 45.66929029009369 16.869999999999987 47.320000000000036 C 16.733612785771605 47.72383764812399 16.356235025256098 47.996834325943716 15.930000000000001 48 L 7 48 C 3.1340067511844456 48 0 51.134006751184444 0 55 L 0 73 C 0 76.86599324881556 3.1340067511844456 80 7 80 L 15.93 80 C 16.3562350252561 80.00316567405629 16.733612785771605 80.27616235187601 16.87 80.68 C 17.451163333797947 82.33061721687038 18.118752372669103 83.94952063613292 18.870000000000008 85.53 C 19.062268008352838 85.91235654648024 18.98990447104496 86.37467914594724 18.69 86.68 L 12.38 93 C 11.067090860576434 94.31277517593774 10.329494923727065 96.09336081293637 10.329494923727065 97.95 C 10.329494923727065 99.80663918706364 11.067090860576434 101.58722482406226 12.38 102.9 L 25.11 115.63000000000001 C 26.42277517593774 116.94290913942358 28.20336081293637 117.68050507627294 30.06 117.68050507627294 C 31.91663918706363 117.68050507627294 33.69722482406226 116.94290913942358 35.01 115.63000000000001 L 41.32 109.32000000000001 C 41.62532085405276 109.02009552895505 42.08764345351975 108.94773199164717 42.47 109.14 C 44.050374249348124 109.89148462412362 45.669290290093656 110.55907886773004 47.31999999999999 111.14 C 47.72383764812399 111.2763872142284 47.996834325943716 111.65376497474391 48 112.08 L 48 121 C 48 124.86599324881556 51.134006751184444 128 55 128 L 73 128 C 76.86599324881556 128 80 124.86599324881556 80 121 L 80 112.07 C 80.00316567405629 111.64376497474389 80.27616235187601 111.26638721422839 80.68 111.13 C 82.33061721687038 110.54883666620205 83.94952063613292 109.8812476273309 85.53 109.13 C 85.91235654648024 108.93773199164715 86.37467914594724 109.01009552895505 86.68 109.31 L 93 115.62 C 94.31277517593774 116.93290913942357 96.09336081293637 117.67050507627295 97.95 117.67050507627295 C 99.80663918706364 117.67050507627295 101.58722482406226 116.93290913942357 102.9 115.62 L 115.63000000000001 102.89 C 116.94290913942358 101.57722482406226 117.68050507627295 99.79663918706363 117.68050507627295 97.94 C 117.68050507627295 96.08336081293636 116.94290913942358 94.30277517593774 115.63000000000001 92.99 L 109.32000000000001 86.67999999999999 C 109.02009552895505 86.37467914594723 108.94773199164716 85.91235654648023 109.14 85.52999999999999 C 109.89148462412362 83.94962575065186 110.55907886773002 82.33070970990633 111.13999999999999 80.68 C 111.2763872142284 80.276162351876 111.6537649747439 80.00316567405628 112.08 79.99999999999999 L 121 79.99999999999999 C 124.86599324881556 79.99999999999999 128 76.86599324881554 128 72.99999999999999 L 128 55 C 128 51.134006751184444 124.86599324881556 48 121 48 Z M 122 73 C 122 73.55228474983079 121.55228474983079 74 121 74 L 112.07 74 C 109.09732834801346 74.00334131472972 106.45098038700533 75.88385221429459 105.47 78.69 C 104.95833551195776 80.13983987521607 104.3708593165423 81.56179930275579 103.71 82.95 C 102.41122299660401 85.63216835266799 102.95297666381126 88.84256045463694 105.05999999999999 90.95 L 111.36999999999999 97.26 C 111.75772359471078 97.65003745431093 111.75772359471078 98.27996254568907 111.36999999999999 98.67 L 98.65 111.38 C 98.25996254568908 111.76772359471079 97.63003745431094 111.76772359471079 97.24000000000001 111.38 L 90.93 105.07 C 88.82256045463694 102.96297666381126 85.612168352668 102.42122299660402 82.93 103.72 C 81.5385491070097 104.38121678975648 80.11324204952683 104.96869698206791 78.66000000000001 105.48 C 75.85779801194809 106.4643652030064 73.98185106266331 109.10993141353622 73.98000000000002 112.08 L 73.98000000000002 121 C 73.98000000000002 121.55228474983079 73.53228474983081 122 72.98000000000002 122 L 55 122 C 54.4477152501692 122 54 121.55228474983079 54 121 L 54 112.07 C 53.99665868527027 109.09732834801346 52.1161477857054 106.45098038700533 49.31 105.47 C 47.86016012478393 104.95833551195776 46.43820069724421 104.37085931654228 45.05 103.70999999999998 C 42.36783164733202 102.41122299660401 39.15743954536307 102.95297666381126 37.050000000000004 105.05999999999999 L 30.740000000000006 111.36999999999999 C 30.34996254568908 111.75772359471078 29.72003745431093 111.75772359471078 29.330000000000005 111.36999999999999 L 16.62 98.65 C 16.232276405289205 98.25996254568908 16.232276405289205 97.63003745431094 16.62 97.24000000000001 L 22.93 90.93 C 25.037023336188728 88.82256045463694 25.57877700339599 85.612168352668 24.28 82.93 C 23.618783210243524 81.5385491070097 23.03130301793209 80.11324204952685 22.520000000000003 78.66000000000001 C 21.530112365177775 75.86914524812627 18.891205536459555 74.00308973646816 15.929999999999996 74 L 7 74 C 6.447715250169207 74 6 73.55228474983079 6 73 L 6 55 C 6 54.4477152501692 6.447715250169207 54 7 54 L 15.93 54 C 18.902671651986534 53.996658685270276 21.549019612994666 52.1161477857054 22.53 49.31 C 23.041664488042237 47.86016012478394 23.629140683457713 46.43820069724424 24.290000000000006 45.050000000000026 C 25.58877700339599 42.36783164733202 25.04702333618873 39.15743954536307 22.939999999999998 37.050000000000004 L 16.630000000000003 30.740000000000006 C 16.242276405289203 30.34996254568908 16.242276405289203 29.72003745431093 16.630000000000003 29.330000000000005 L 29.35 16.62 C 29.740037454310926 16.232276405289202 30.369962545689077 16.232276405289202 30.76 16.62 L 37.07 22.93 C 39.177439545363065 25.037023336188728 42.38783164733202 25.578777003395988 45.07000000000001 24.28 C 46.461450892990314 23.61878321024352 47.886757950473175 23.03130301793209 49.34 22.520000000000003 C 52.13085475187374 21.53011236517777 53.996910263531845 18.89120553645955 54 15.929999999999996 L 54 7 C 54 6.447715250169207 54.4477152501692 6 55 6 L 73 6 C 73.55228474983079 6 74 6.447715250169207 74 7 L 74 15.93 C 74.00334131472972 18.902671651986534 75.88385221429459 21.549019612994666 78.69 22.53 C 80.13983987521607 23.04166448804224 81.56179930275579 23.629140683457713 82.95 24.290000000000006 C 85.63216835266799 25.588777003395993 88.84256045463694 25.04702333618873 90.95 22.94 L 97.26 16.630000000000003 C 97.65003745431093 16.242276405289207 98.27996254568907 16.242276405289207 98.67 16.630000000000003 L 111.4 29.360000000000003 C 111.78772359471081 29.750037454310927 111.7877235947108 30.37996254568908 111.4 30.770000000000003 L 105.09 37.080000000000005 C 102.98297666381127 39.18743954536307 102.44122299660403 42.39783164733202 103.74000000000001 45.080000000000005 C 104.40121678975649 46.47145089299032 104.9886969820679 47.896757950473166 105.5 49.349999999999994 C 106.4843652030064 52.15220198805193 109.12993141353623 54.02814893733672 112.10000000000001 54.03000000000001 L 121 54.03000000000001 C 121.55228474983079 54.03000000000001 122 54.47771525016921 122 55.03000000000001 Z" stroke-linecap="round" />
</g>
</g>
</g>
</svg>