<?xml version="1.0" encoding="UTF-8" standalone="no"?><!-- Generator: Gravit.io --><svg xmlns="http://www.w3.org/2000/svg" xmlns:xlink="http://www.w3.org/1999/xlink" style="isolation:isolate" viewBox="0 0 512 512" width="512pt" height="512pt"><defs><clipPath id="_clipPath_UD4DpZgMCfBH5HqqYQ6rSThKMu7VmdKq"><rect width="512" height="512"/></clipPath></defs><g clip-path="url(#_clipPath_UD4DpZgMCfBH5HqqYQ6rSThKMu7VmdKq)"><clipPath id="_clipPath_35rDNZLX7JVJZnOiosncKLCrHYv7fAKx"><rect x="0" y="0" width="512" height="512" transform="matrix(1,0,0,1,0,0)" fill="rgb(255,255,255)"/></clipPath><g clip-path="url(#_clipPath_35rDNZLX7JVJZnOiosncKLCrHYv7fAKx)"><g><g><path d=" M 168.71 150.072 C 185.771 140.773 205.332 135.5 226.115 135.5 C 292.62 135.5 346.615 189.494 346.615 256 C 346.615 322.506 292.62 376.5 226.115 376.5 C 203.973 376.5 183.219 370.515 165.385 360.072 C 217.554 351.641 257.365 307.674 257.365 254.773 C 257.365 203.003 219.238 159.789 168.71 150.072 Z " fill-rule="evenodd" fill="rgb(255,255,255)"/><path d=" M 168.71 150.072 C 185.771 140.773 205.332 135.5 226.115 135.5 C 292.62 135.5 346.615 189.494 346.615 256 C 346.615 322.506 292.62 376.5 226.115 376.5 C 203.973 376.5 183.219 370.515 165.385 360.072 C 217.554 351.641 257.365 307.674 257.365 254.773 C 257.365 203.003 219.238 159.789 168.71 150.072 Z " fill-rule="evenodd" fill="rgb(255,255,255)"/><clipPath id="_clipPath_iMGO38zU8MxLqV29sDjm3zBZ5kbuY4yy"><path d=" M 168.71 150.072 C 185.771 140.773 205.332 135.5 226.115 135.5 C 292.62 135.5 346.615 189.494 346.615 256 C 346.615 322.506 292.62 376.5 226.115 376.5 C 203.973 376.5 183.219 370.515 165.385 360.072 C 217.554 351.641 257.365 307.674 257.365 254.773 C 257.365 203.003 219.238 159.789 168.71 150.072 Z " fill-rule="evenodd" fill="rgb(255,255,255)"/></clipPath><g clip-path="url(#_clipPath_iMGO38zU8MxLqV29sDjm3zBZ5kbuY4yy)"><path d=" M 168.71 150.072 C 185.771 140.773 205.332 135.5 226.115 135.5 C 292.62 135.5 346.615 189.494 346.615 256 C 346.615 322.506 292.62 376.5 226.115 376.5 C 203.973 376.5 183.219 370.515 165.385 360.072 C 217.554 351.641 257.365 307.674 257.365 254.773 C 257.365 203.003 219.238 159.789 168.71 150.072 Z " fill-rule="evenodd" fill="rgb(255,255,255)"/></g></g></g></g></g></svg>