<?xml version="1.0" encoding="UTF-8" standalone="no"?><!-- Generator: Gravit.io --><svg xmlns="http://www.w3.org/2000/svg" xmlns:xlink="http://www.w3.org/1999/xlink" style="isolation:isolate" viewBox="0 0 512 512" width="512pt" height="512pt"><defs><clipPath id="_clipPath_gexEjAKM9innw1wsE3ju81VUeqK3R7v4"><rect width="512" height="512"/></clipPath></defs><g clip-path="url(#_clipPath_gexEjAKM9innw1wsE3ju81VUeqK3R7v4)"><path d=" M 461 255.3 L 461 256.7 C 461 260.177 458.177 263 454.7 263 L 406.3 263 C 402.823 263 400 260.177 400 256.7 L 400 255.3 C 400 251.823 402.823 249 406.3 249 L 454.7 249 C 458.177 249 461 251.823 461 255.3 L 461 255.3 L 461 255.3 L 461 255.3 L 461 255.3 L 461 255.3 L 461 255.3 L 461 255.3 Z  M 112 255.3 L 112 256.7 C 112 260.177 109.177 263 105.7 263 L 57.3 263 C 53.823 263 51 260.177 51 256.7 L 51 255.3 C 51 251.823 53.823 249 57.3 249 L 105.7 249 C 109.177 249 112 251.823 112 255.3 L 112 255.3 L 112 255.3 L 112 255.3 L 112 255.3 L 112 255.3 L 112 255.3 L 112 255.3 Z  M 256.7 461 L 255.3 461 C 251.823 461 249 458.177 249 454.7 L 249 406.3 C 249 402.823 251.823 400 255.3 400 L 256.7 400 C 260.177 400 263 402.823 263 406.3 L 263 454.7 C 263 458.177 260.177 461 256.7 461 L 256.7 461 L 256.7 461 L 256.7 461 L 256.7 461 L 256.7 461 L 256.7 461 Z  M 256.7 112 L 255.3 112 C 251.823 112 249 109.177 249 105.7 L 249 57.3 C 249 53.823 251.823 51 255.3 51 L 256.7 51 C 260.177 51 263 53.823 263 57.3 L 263 105.7 C 263 109.177 260.177 112 256.7 112 L 256.7 112 L 256.7 112 L 256.7 112 L 256.7 112 L 256.7 112 Z  M 401.452 400.462 L 400.462 401.452 C 398.003 403.911 394.011 403.911 391.552 401.452 L 357.328 367.228 C 354.87 364.769 354.87 360.777 357.328 358.318 L 358.318 357.328 C 360.777 354.87 364.769 354.87 367.228 357.328 L 401.452 391.552 C 403.911 394.011 403.911 398.003 401.452 400.462 L 401.452 400.462 L 401.452 400.462 L 401.452 400.462 L 401.452 400.462 Z  M 154.672 153.682 L 153.682 154.672 C 151.223 157.13 147.231 157.13 144.772 154.672 L 110.548 120.448 C 108.089 117.989 108.089 113.997 110.548 111.538 L 111.538 110.548 C 113.997 108.089 117.989 108.089 120.448 110.548 L 154.672 144.772 C 157.13 147.231 157.13 151.223 154.672 153.682 L 154.672 153.682 L 154.672 153.682 L 154.672 153.682 Z  M 111.538 401.452 L 110.548 400.462 C 108.089 398.003 108.089 394.011 110.548 391.552 L 144.772 357.328 C 147.231 354.87 151.223 354.87 153.682 357.328 L 154.672 358.318 C 157.13 360.777 157.13 364.769 154.672 367.228 L 120.448 401.452 C 117.989 403.911 113.997 403.911 111.538 401.452 L 111.538 401.452 L 111.538 401.452 Z  M 358.318 154.672 L 357.328 153.682 C 354.87 151.223 354.87 147.231 357.328 144.772 L 391.552 110.548 C 394.011 108.089 398.003 108.089 400.462 110.548 L 401.452 111.538 C 403.911 113.997 403.911 117.989 401.452 120.448 L 367.228 154.672 C 364.769 157.13 360.777 157.13 358.318 154.672 L 358.318 154.672 Z  M 135.5 256 C 135.5 189.494 189.494 135.5 256 135.5 C 322.506 135.5 376.5 189.494 376.5 256 C 376.5 322.506 322.506 376.5 256 376.5 C 189.494 376.5 135.5 322.506 135.5 256 Z " fill-rule="evenodd" fill="rgb(0,0,0)"/></g></svg>