<?xml version="1.0" encoding="UTF-8" standalone="no"?><!-- Generator: Gravit.io --><svg xmlns="http://www.w3.org/2000/svg" xmlns:xlink="http://www.w3.org/1999/xlink" style="isolation:isolate" viewBox="0 0 512 512" width="512pt" height="512pt"><defs><clipPath id="_clipPath_xcYARhRtg3sUjfRk9v1jeMYgnxM91LrK"><rect width="512" height="512"/></clipPath></defs><g clip-path="url(#_clipPath_xcYARhRtg3sUjfRk9v1jeMYgnxM91LrK)"><path d=" M 395.548 480.852 L 131.2 480.852 L 131.2 512 L 380.632 512 L 396.129 512 L 380.632 512 L 393.163 485.833 L 395.548 480.852 L 395.548 480.852 Z  M 115.871 59.487 L 115.871 31.148 L 131.2 31.148 L 131.2 512 L 115.871 512 L 115.871 59.487 L 115.871 59.487 Z  M 146.774 31.148 L 131.322 31.148 L 115.871 31.148 L 123.597 15.574 L 131.322 0 L 139.048 15.574 L 146.774 31.148 Z " fill-rule="evenodd" fill="rgb(12,179,53)"/><rect x="131.2" y="0" width="264.76" height="480.852" transform="matrix(1,0,0,1,0,0)" fill="rgb(45,249,45)"/></g></svg>