<?xml version="1.0" encoding="UTF-8" standalone="no"?>
<!-- Generator: Gravit.io -->
<svg xmlns="http://www.w3.org/2000/svg" xmlns:xlink="http://www.w3.org/1999/xlink" style="isolation:isolate" viewBox="0 0 1200 2500" width="1200pt" height="2500pt"><defs><clipPath id="_clipPath_yjkagM8nGmQn0gVUKPLZd3LWqSE2IhR4"><rect width="1200" height="2500"/></clipPath></defs><g clip-path="url(#_clipPath_yjkagM8nGmQn0gVUKPLZd3LWqSE2IhR4)"><g><path d="M 182.218 175 L 1017.782 175 C 1078.337 175 1127.5 224.163 1127.5 284.718 L 1127.5 2215.282 C 1127.5 2275.837 1078.337 2325 1017.782 2325 L 182.218 2325 C 121.663 2325 72.5 2275.837 72.5 2215.282 L 72.5 284.718 C 72.5 224.163 121.663 175 182.218 175 Z" style="stroke:none;fill:#1B1B1B;stroke-miterlimit:10;"/><g><path d="M 199.637 2018 L 1000.363 2018 C 1036.037 2018 1065 2046.963 1065 2082.636 L 1065 2194.824 C 1065 2230.497 1036.037 2259.46 1000.363 2259.46 L 199.637 2259.46 C 163.963 2259.46 135 2230.497 135 2194.824 L 135 2082.636 C 135 2046.963 163.963 2018 199.637 2018 Z" style="stroke:none;fill:#000000;stroke-miterlimit:10;opacity:0.5;"/><g clip-path="url(#_clipPath_6m4NkPcY0UEXh85ic8htBtfbXMjg1rZK)"><text transform="matrix(1,0,0,1,193.23,2158.675)" style="font-family:'Arial';font-weight:400;font-size:109px;font-style:normal;fill:#646464;stroke:none;">HOME SCREEN</text></g><defs><clipPath id="_clipPath_6m4NkPcY0UEXh85ic8htBtfbXMjg1rZK"><rect x="0" y="0" width="820" height="152" transform="matrix(1,0,0,1,190,2060)"/></clipPath></defs></g><line x1="95" y1="566" x2="1109" y2="566" vector-effect="non-scaling-stroke" stroke-width="1" stroke="rgb(255,255,255)" stroke-linejoin="miter" stroke-linecap="square" stroke-miterlimit="3"/><g clip-path="url(#_clipPath_491rPhiTfHo5fraxsCFMIxg5bVFChtDn)"><text transform="matrix(1,0,0,1,485.084,527.264)" style="font-family:'Arial';font-weight:400;font-size:50px;font-style:normal;fill:#dcdcdc;stroke:none;">email.com</text></g><defs><clipPath id="_clipPath_491rPhiTfHo5fraxsCFMIxg5bVFChtDn"><rect x="0" y="0" width="274" height="68" transform="matrix(1,0,0,1,463,482)"/></clipPath></defs><path d="M 237.398 1700 L 874.602 1700 C 933.739 1700 981.75 1748.011 981.75 1807.146 L 981.75 1816.874 C 981.75 1876.009 933.739 1924.02 874.602 1924.02 L 237.398 1924.02 C 178.261 1924.02 130.25 1876.009 130.25 1816.874 L 130.25 1807.146 C 130.25 1748.011 178.261 1700 237.398 1700 Z" style="stroke:none;fill:#323232;stroke-miterlimit:10;"/><g clip-path="url(#_clipPath_QNprVTTi9O11xLs0ikGzqBSOjDzSITTR)"><text transform="matrix(1,0,0,1,197,1798.037)" style="font-family:'Arial';font-weight:400;font-size:57px;font-style:normal;fill:#c3c3c3;stroke:none;">Váš ověřovací kód je:</text><text transform="matrix(1,0,0,1,197,1861.717)" style="font-family:'Arial';font-weight:400;font-size:57px;font-style:normal;fill:#c3c3c3;stroke:none;">xDsdxBxEgdxGhcLxA</text></g><defs><clipPath id="_clipPath_QNprVTTi9O11xLs0ikGzqBSOjDzSITTR"><rect x="0" y="0" width="754" height="131.151" transform="matrix(1,0,0,1,197,1746.436)"/></clipPath></defs><g><path d="M 600 331 L 600 331 C 636.978 331 667 361.022 667 398 L 667 398 C 667 434.978 636.978 465 600 465 L 600 465 C 563.022 465 533 434.978 533 398 L 533 398 C 533 361.022 563.022 331 600 331 Z" style="stroke:none;fill:#E4E6E7;stroke-miterlimit:10;"/><ellipse vector-effect="non-scaling-stroke" cx="600.3532513181019" cy="386.4604569420039" rx="26.022847100175795" ry="28.14235500878732" fill="rgb(174,180,183)"/><path d=" M 652.751 452.047 C 652.752 452.008 652.752 451.969 652.752 451.93 C 652.752 432.368 629.273 416.487 600.353 416.487 C 571.433 416.487 547.954 432.368 547.954 451.93 C 547.954 451.969 547.954 452.008 547.956 452.047 L 652.751 452.047 L 652.751 452.047 Z " fill="rgb(174,180,183)"/><path d=" M 650.633 441.921 C 649.131 443.881 641.772 450.77 639.564 452.047 L 655.578 457.935 L 654.165 443.569 L 650.633 441.921 Z " fill="rgb(27,27,27)"/><path d=" M 549.838 442.392 C 552.605 445.105 556.303 448.421 560.436 452.047 L 544.422 457.935 L 545.835 443.569 L 549.838 442.392 Z " fill="rgb(27,27,27)"/></g></g><g><g><path d="M 182.218 175 L 1017.782 175 C 1078.337 175 1127.5 224.163 1127.5 284.718 L 1127.5 2215.282 C 1127.5 2275.837 1078.337 2325 1017.782 2325 L 182.218 2325 C 121.663 2325 72.5 2275.837 72.5 2215.282 L 72.5 284.718 C 72.5 224.163 121.663 175 182.218 175 Z" style="fill:none;stroke:#000000;stroke-width:50;stroke-linecap:square;stroke-miterlimit:2;"/><path d=" M 787.175 175 L 787.175 175 L 412.825 175 L 412.825 175 L 366.5 175 L 366.5 221.325 L 366.5 233.256 L 366.5 233.256 L 366.5 235.174 C 366.5 260.741 387.257 281.499 412.825 281.499 L 787.175 281.499 C 812.743 281.499 833.5 260.741 833.5 235.174 L 833.5 221.325 L 833.5 221.325 L 833.5 175 L 787.175 175 Z " fill-rule="evenodd" fill="rgb(0,0,0)"/></g><path d="M 539.357 215.51 L 660.643 215.51 C 668.015 215.51 674 221.219 674 228.25 L 674 228.25 C 674 235.281 668.015 240.99 660.643 240.99 L 539.357 240.99 C 531.985 240.99 526 235.281 526 228.25 L 526 228.25 C 526 221.219 531.985 215.51 539.357 215.51 Z" style="stroke:none;fill:#2E2E2E;stroke-miterlimit:10;"/><g><g><path d="M 718.311 215.51 L 719.689 215.51 C 727.587 215.51 734 221.626 734 229.16 L 734 229.16 C 734 236.694 727.587 242.81 719.689 242.81 L 718.311 242.81 C 710.413 242.81 704 236.694 704 229.16 L 704 229.16 C 704 221.626 710.413 215.51 718.311 215.51 Z" style="stroke:none;fill:#2E2E2E;stroke-miterlimit:10;"/><path d="M 773.311 215.51 L 774.689 215.51 C 782.587 215.51 789 221.626 789 229.16 L 789 229.16 C 789 236.694 782.587 242.81 774.689 242.81 L 773.311 242.81 C 765.413 242.81 759 236.694 759 229.16 L 759 229.16 C 759 221.626 765.413 215.51 773.311 215.51 Z" style="stroke:none;fill:#2E2E2E;stroke-miterlimit:10;"/></g><g><path d="M 488.311 215.51 L 489.689 215.51 C 497.587 215.51 504 221.626 504 229.16 L 504 229.16 C 504 236.694 497.587 242.81 489.689 242.81 L 488.311 242.81 C 480.413 242.81 474 236.694 474 229.16 L 474 229.16 C 474 221.626 480.413 215.51 488.311 215.51 Z" style="stroke:none;fill:#2E2E2E;stroke-miterlimit:10;"/><path d="M 433.311 215.51 L 434.689 215.51 C 442.587 215.51 449 221.626 449 229.16 L 449 229.16 C 449 236.694 442.587 242.81 434.689 242.81 L 433.311 242.81 C 425.413 242.81 419 236.694 419 229.16 L 419 229.16 C 419 221.626 425.413 215.51 433.311 215.51 Z" style="stroke:none;fill:#2E2E2E;stroke-miterlimit:10;"/></g></g></g></g></svg>